<?xml version="1.0" encoding="UTF-8"?>
<svg version="1.1" xmlns="http://www.w3.org/2000/svg" width="44" height="44">
<path d="M0 0 C0.625 1.875 0.625 1.875 1 4 C0.34 4.66 -0.32 5.32 -1 6 C-3.0155127 5.74406188 -5.03297857 5.48143968 -7.02734375 5.09375 C-9.32638078 4.7888954 -9.32638078 4.7888954 -12 7 C-15.1875 6.625 -15.1875 6.625 -18 6 C-19.76160798 8.86449609 -19.76160798 8.86449609 -19.5625 12.125 C-19.2840625 13.053125 -19.2840625 13.053125 -19 14 C-19.33 14.66 -19.66 15.32 -20 16 C-21.65 16 -23.3 16 -25 16 C-25.125 10.25 -25.125 10.25 -24 8 C-23.64386903 6.33805547 -23.30791692 4.671549 -23 3 C-22.236875 2.87625 -21.47375 2.7525 -20.6875 2.625 C-17.79732864 2.11897208 -17.79732864 2.11897208 -15 0 C-13.02734375 -0.16015625 -13.02734375 -0.16015625 -10.9375 -0.0625 C-6.61853623 0.00605498 -4.28903406 -1.01582386 0 0 Z " fill="#674DF3" transform="translate(25,9)"/>
<path d="M0 0 C2.125 0.375 2.125 0.375 4 1 C5.05404945 4.98196457 4.84098656 7.98195309 4 12 C4.69867188 11.90460937 5.39734375 11.80921875 6.1171875 11.7109375 C7.02726562 11.60007812 7.93734375 11.48921875 8.875 11.375 C9.77992187 11.25898438 10.68484375 11.14296875 11.6171875 11.0234375 C12.40351563 11.01570313 13.18984375 11.00796875 14 11 C14.66 11.66 15.32 12.32 16 13 C15.625 15.125 15.625 15.125 15 17 C11.251351 17.96393831 8.74678682 17.84302703 5 17 C4.0925 17 3.185 17 2.25 17 C1.5075 17 0.765 17 0 17 C-0.33 16.67 -0.66 16.34 -1 16 C-1 14.04552954 -0.99602108 12.0908743 -0.9609375 10.13671875 C-0.94560003 7.77825651 -0.94560003 7.77825651 -1.625 4.625 C-1.74875 3.75875 -1.8725 2.8925 -2 2 C-1.34 1.34 -0.68 0.68 0 0 Z " fill="#674DF3" transform="translate(10,18)"/>
<path d="M0 0 C2.82957829 0.36276645 5.29084291 1.09694764 8 2 C8.99 1.34 9.98 0.68 11 0 C13.1875 0.375 13.1875 0.375 15 1 C15.625 3.375 15.625 3.375 16 6 C15.34 6.66 14.68 7.32 14 8 C11.38419521 7.6730244 9.35921863 7.17960932 7 6 C6.01 6.66 5.02 7.32 4 8 C1.3125 7.625 1.3125 7.625 -1 7 C-1.625 4.625 -1.625 4.625 -2 2 C-1.34 1.34 -0.68 0.68 0 0 Z " fill="#674DF3" transform="translate(20,18)"/>
<path d="M0 0 C1.0725 0.350625 2.145 0.70125 3.25 1.0625 C6.81307514 1.95326879 7.72847757 2.01530006 11 1 C11.639375 1.185625 12.27875 1.37125 12.9375 1.5625 C15.77562988 2.16452755 17.43200707 1.21266333 20 0 C20.625 1.875 20.625 1.875 21 4 C19 6 19 6 16.4375 6.0625 C15.2309375 6.0315625 15.2309375 6.0315625 14 6 C13.67 6.33 13.34 6.66 13 7 C7.47058824 7.23529412 7.47058824 7.23529412 5 6 C3.33805547 5.64386903 1.671549 5.30791692 0 5 C-0.5625 3.0625 -0.5625 3.0625 -1 1 C-0.67 0.67 -0.34 0.34 0 0 Z " fill="#674DF3" transform="translate(12,37)"/>
<path d="M0 0 C-0.73916176 5.02629997 -2.36892762 9.36892762 -6 13 C-6.99 13 -7.98 13 -9 13 C-8.505 12.1028125 -8.505 12.1028125 -8 11.1875 C-6.79212012 8.94613529 -6.79212012 8.94613529 -7 6 C-7.66 6.66 -8.32 7.32 -9 8 C-11.625 8.125 -11.625 8.125 -14 8 C-14.6875 6.1875 -14.6875 6.1875 -15 4 C-13.9375 2.1875 -13.9375 2.1875 -12 1 C-9.99363529 1.29259485 -7.99285937 1.62633887 -6 2 C-3 0 -3 0 0 0 Z " fill="#674DF3" transform="translate(43,27)"/>
<path d="M0 0 C4.13668518 0.60833606 7.40978685 1.84587211 11 4 C12.375 6.1875 12.375 6.1875 13 8 C12.401875 7.835 11.80375 7.67 11.1875 7.5 C8.88655664 6.8885876 8.88655664 6.8885876 6 7 C6.66 7.66 7.32 8.32 8 9 C8.125 11.625 8.125 11.625 8 14 C6.1875 14.6875 6.1875 14.6875 4 15 C2.1875 13.9375 2.1875 13.9375 1 12 C1.29259485 9.99363529 1.62633887 7.99285937 2 6 C1.34 5.01 0.68 4.02 0 3 C0 2.01 0 1.02 0 0 Z " fill="#674DF3" transform="translate(27,1)"/>
<path d="M0 0 C1.4540625 0.0309375 1.4540625 0.0309375 2.9375 0.0625 C2.9375 1.7125 2.9375 3.3625 2.9375 5.0625 C0.66105197 5.79421544 -0.66967425 6.17654619 -3 5.5 C-5.86139322 4.8930378 -7.43479059 5.88003076 -10.0625 7.0625 C-11.38844105 7.42412029 -12.72188457 7.75978039 -14.0625 8.0625 C-15.17625 8.3409375 -15.17625 8.3409375 -16.3125 8.625 C-16.89 8.769375 -17.4675 8.91375 -18.0625 9.0625 C-16.7889924 5.10047634 -14.37583882 3.68481853 -10.87890625 1.80859375 C-8.53618271 0.84631376 -6.56517031 0.84167615 -4.0625 1.0625 C-3.0625 0.0625 -3.0625 0.0625 0 0 Z " fill="#674DF3" transform="translate(22.0625,-0.0625)"/>
<path d="M0 0 C2.475 0.495 2.475 0.495 5 1 C5.144375 1.78375 5.28875 2.5675 5.4375 3.375 C5.87798925 5.96421018 5.87798925 5.96421018 7 8 C7.039992 9.99960012 7.04346799 12.00047242 7 14 C5.35 14 3.7 14 2 14 C1.24940913 11.66482841 0.90789696 10.33771114 1.5625 7.9375 C1.706875 7.298125 1.85125 6.65875 2 6 C1.34 5.01 0.68 4.02 0 3 C0 2.01 0 1.02 0 0 Z " fill="#674DF3" transform="translate(37,11)"/>
<path d="M0 0 C2.86724686 0.57344937 3.8614515 0.8614515 6 3 C5.979375 3.763125 5.95875 4.52625 5.9375 5.3125 C6.01473439 8.63357886 7.14774665 10.2987972 9 13 C7.1875 12.8125 7.1875 12.8125 5 12 C3.375 9.625 3.375 9.625 2 7 C1.34 6.01 0.68 5.02 0 4 C0 2.68 0 1.36 0 0 Z " fill="#674DF3" transform="translate(1,27)"/>
</svg>
